<?xml version="1.0" encoding="utf-8"?>
<!-- Generator: Adobe Illustrator 25.0.0, SVG Export Plug-In . SVG Version: 6.00 Build 0)  -->
<svg version="1.1" id="Capa_1" xmlns="http://www.w3.org/2000/svg" xmlns:xlink="http://www.w3.org/1999/xlink" x="0px" y="0px"
	 viewBox="0 0 1920 1080" style="enable-background:new 0 0 1920 1080;" xml:space="preserve">
<style type="text/css">
	.st0{display:none;}
	.st1{display:inline;fill:#004e98;}
	.st2{display:inline;fill:#004E98;}
	.st3{display:inline;fill:#004E98;}
	.st4{display:inline;fill:#FEFEFE;}
	.st5{fill:#ffffff;}
	.st6{fill:#004e98;}
</style>
<g class="st0">
	<path class="st1" d="M1065.09,159.3c-31.17,0.11-62.33,0.29-93.5,0.26c-8.5-0.01-13.03-6.24-10.83-15.17
		c5.46-22.15,11.13-44.25,17.05-66.28c1.48-5.51,1.7-10.44,0.09-16.06c-5.64-19.67-10.63-39.53-15.92-59.3
		c-3.58-13.4-3.63-13.41,9.72-13.42c26.44-0.02,52.88-0.2,79.31,0.11c7.71,0.09,12.03-0.16,8.21-9.98
		c-4.58-11.78-0.76-21.63,10.38-28.23c0.68-0.4,1.28-0.98,2-1.26c23.61-9.37,31.59-26.94,29.4-51.65
		c-1.28-14.51,4.87-20.56,19-24.31c4.94-1.31,9.98-2.42,15.04-3.03c14.59-1.76,23.68-9.59,27.6-23.73c0.94-3.39,2.61-6.58,3.94-9.86
		c7.04-17.32,13.43-21.06,31.84-18.5c4.29,0.59,8.55,1.38,12.81,2.14c12.84,2.3,23.32-1.36,31.06-12.13
		c0.69-0.96,1.56-1.78,2.35-2.66c20.28-22.61,22.59-23.46,48.79-8.22c14.23,8.28,27.21,9.04,40.89-0.14
		c3.58-2.4,7.73-3.94,11.47-6.12c10.94-6.37,21.22-4.89,28.35,5.07c14.92,20.83,32.92,29.04,58.92,22.3
		c15.31-3.97,22.79,1.23,27.47,17.22c6.72,22.96,18.86,36.08,44.05,37.87c14.99,1.07,19.67,9.25,20.18,24.44
		c0.18,5.52,0.12,11.05,0.21,16.57c0.19,11.49,4.59,20.57,14.94,26.36c4.81,2.69,9.56,5.53,14.18,8.55
		c13.86,9.07,16.27,14.53,11.61,30.75c-2.09,7.29-0.22,8.63,6.7,8.55c24.85-0.31,49.73,0.26,74.57-0.33
		c8.71-0.21,15.65,0.82,19.52,9.45c-5.8,5.73-5.1,13.73-6.91,20.74c-3.89,15.09-6.78,30.43-10.3,45.63
		c-1.26,5.44-2.28,11.11,1.53,16.18c1.58,1.42,1.89,3.22,1.49,5.21c-0.23,17.87,6.41,34.51,9.45,51.8
		c2.77,15.77,1.92,17.88-14.56,17.92c-38.27,0.09-76.54-0.09-114.81-0.1c-152.69-0.02-305.38,0.17-458.07-0.24
		c-31.12-0.08-62.29,0-87.64-0.82c18.33,0.18,42.44-0.16,66.54,0.18C1057.35,155.13,1063.04,152.63,1065.09,159.3z"/>
	<path class="st2" d="M1558.19,159.89c-4.83,5.46-11.55,8.18-17.66,11.59c-10.87,6.08-15.42,15.22-15.57,27.16
		c-0.02,1.18-0.02,2.37-0.03,3.55c-0.42,31.85-2.47,34.99-33.45,39.99c-15.61,2.52-24.88,10.37-29.11,25.17
		c-1.08,3.77-2.74,7.37-4.19,11.02c-4.76,12.02-13.32,19.9-26.4,16.17c-26.51-7.54-45.48,1.34-60.9,22.9
		c-6.52,9.12-16.39,10.15-26.48,4.78c-3.13-1.66-6.5-2.99-9.36-5.03c-15.73-11.2-30.66-10.27-47.13-0.21
		c-21.69,13.25-27.12,12.42-42.97-7.34c-12.42-15.48-26.13-20.41-45.39-15.88c-21.3,5.02-30.53,0.16-36.54-20.97
		c-5.82-20.47-18.21-29.25-38.27-32.28c-22.57-3.41-27.16-9.02-26.32-31.19c0.8-20.97-4.59-37.18-25.77-45.1
		c-2.07-0.77-3.63-2.89-5.43-4.38c6.02-6.08,13.83-4.87,21.17-4.87c108.9-0.09,217.81-0.06,326.71-0.06
		c41.04,0,82.07-0.07,123.11,0.06C1545.18,155.01,1552.59,154,1558.19,159.89z"/>
	<path class="st3" d="M1558.19,159.89c-19.06-3.95-38.37-2.48-57.59-2.49c-124.87-0.09-249.73-0.1-374.6,0
		c-19.61,0.02-39.32-1.53-58.78,2.46c-0.74-0.06-1.46-0.25-2.14-0.56c-3.74-3.33-8.29-1.86-12.47-1.88
		c-24.84-0.14-49.68,0-74.52-0.15c-3.65-0.02-7.78,1.52-11.78-2.59c4.73-3.69,9.92-2.11,14.53-2.11
		c221.59-0.09,443.18-0.08,664.77-0.08c18.01,0,18,0,14.04-17.29c-2.97-12.98-5.98-25.95-8.8-38.96c-0.73-3.37-1.82-7.02,1.43-9.93
		c4.45,20.7,8.59,41.48,13.49,62.08c1.96,8.22,0.52,11.13-8.56,11.06C1624.22,159.21,1591.21,159.69,1558.19,159.89z"/>
	<path class="st3" d="M1650.8,81.11c-4.89-4.95-6.07-10.76-4.5-17.47c4.53-19.34,9.14-38.66,13.18-58.1c0.94-4.53,1.79-7.5,7-6.98
		c-3.1,24.04-10.16,47.27-14.87,70.98C1650.83,73.45,1650.19,77.19,1650.8,81.11z"/>
	<path class="st4" d="M1311.48-10.68c-76.57,0-153.14,0.01-229.7-0.02c-6.09,0-12.55,1.64-14.87-7.44
		c-2.26-8.87-4.43-17.14,4.53-23.37c5.49-3.82,11.29-7.22,17.09-10.57c13.25-7.64,19.14-19.28,19.09-34.28
		c-0.01-2.37,0.02-4.74,0.04-7.1c0.19-22.25,0.43-23.87,22.09-26.9c22.81-3.19,35.77-15,42.34-36.69
		c5.45-17.99,10.61-20.55,29.21-16.24c20.52,4.75,36.54,0.46,50.02-16.88c14.73-18.94,17.46-19.07,37.06-6.62
		c17.3,10.99,33.36,11.18,50.74,0.17c19.83-12.56,22.63-12.4,37.17,6.25c13.43,17.23,29.33,21.93,49.95,17.13
		c19.21-4.47,23.84-2.19,29.69,17.06c6.75,22.18,19.99,34.15,43.36,36.44c15.92,1.56,19.38,5.52,18.13,21.61
		c-1.96,25.29,7.69,42.48,30.7,52.86c8.37,3.78,14.24,9.71,12.25,20.4c-1.79,9.6-5.19,14.6-16.82,14.5
		C1466.2-10.98,1388.84-10.68,1311.48-10.68z"/>
	<path class="st4" d="M1082.2,160c153.66,0,307.32,0,460.98,0c-23.89,11.01-27,31.64-25.52,54.43c0.03,0.39-0.04,0.79-0.02,1.18
		c0.43,9.37-4.24,14.76-13.12,16.88c-1.15,0.27-2.31,0.59-3.48,0.66c-25.89,1.61-42.41,14.18-48.53,40.09
		c-2.76,11.69-10.96,16.74-23.14,14.36c-3.86-0.75-7.74-1.4-11.62-2.03c-14.89-2.42-27.41,0.3-38.34,12.41
		c-20.71,22.94-16.51,27.73-49.21,8.64c-13.7-7.99-26.88-6.15-40.26,1.53c-24.26,13.93-25.08,14.3-42.84-6.56
		c-12.84-15.08-27.28-19.47-46.17-15.12c-20.79,4.79-25.24,2.47-31.67-17.52c-6.65-20.68-19.21-31.74-41.16-34.71
		c-21.82-2.95-22.85-5.42-22.73-27.8C1105.48,187.23,1101.84,170.28,1082.2,160z"/>
</g>
<g>
	<path class="st5" d="M983,551.5c0,17.74-25.36,33.06-28.32,49.95c-3.04,17.38,15.51,40.41,9.61,56.62
		c-6,16.49-35.08,22.2-43.76,37.19c-8.76,15.14,0.77,43.16-10.41,56.47c-11.21,13.35-40.48,8.8-53.83,20.01
		c-13.31,11.18-13.88,40.8-29.02,49.56c-15,8.68-40.93-5.57-57.42,0.43c-16.21,5.9-26.89,33.54-44.27,36.58
		C708.7,861.28,689.24,839,671.5,839c-17.74,0-37.2,22.28-54.09,19.32c-17.38-3.04-28.06-30.68-44.27-36.58
		c-16.49-6-42.43,8.24-57.42-0.43c-15.14-8.76-15.71-38.38-29.02-49.56c-13.35-11.21-42.61-6.66-53.83-20.01
		c-11.18-13.31-1.65-41.34-10.41-56.47c-8.68-15-37.75-20.7-43.76-37.19c-5.9-16.21,12.66-39.24,9.61-56.62
		c-2.96-16.9-28.32-32.21-28.32-49.95c0-17.74,25.36-33.06,28.32-49.95c3.04-17.38-15.51-40.41-9.61-56.62
		c6-16.49,35.08-22.2,43.76-37.19c8.76-15.14-0.77-43.16,10.41-56.47c11.21-13.35,40.48-8.8,53.83-20.01
		c13.31-11.18,13.88-40.8,29.02-49.56c15-8.68,40.93,5.57,57.42-0.43c16.21-5.9,26.89-33.54,44.27-36.58
		c16.9-2.96,36.35,19.32,54.09,19.32c17.74,0,37.2-22.28,54.09-19.32c17.38,3.04,28.06,30.68,44.27,36.58
		c16.49,6,42.43-8.24,57.42,0.43c15.14,8.76,15.71,38.38,29.02,49.56c13.35,11.21,42.61,6.66,53.83,20.01
		c11.18,13.31,1.65,41.34,10.41,56.47c8.68,15,37.75,20.7,43.76,37.19c5.9,16.21-12.66,39.24-9.61,56.62
		C957.64,518.44,983,533.76,983,551.5z"/>
</g>
<g>
	<path class="st6" d="M672.11,292.89c-16.05,0-33.85-22.42-49.14-19.75c-15.72,2.75-24.8,29.96-39.47,35.3
		c-14.92,5.43-39.35-9.52-52.92-1.67c-13.7,7.92-12.91,36.59-24.95,46.71c-12.08,10.15-40.17,4.42-50.31,16.5
		c-10.12,12.04,0.37,38.71-7.55,52.41c-7.85,13.57-36.22,17.77-41.65,32.69c-5.34,14.66,13.65,36.09,10.9,51.82
		c-2.68,15.29-27.89,28.95-27.89,45c0,16.05,25.22,29.71,27.89,45c2.75,15.72-16.23,37.15-10.9,51.82
		c5.43,14.92,33.8,19.12,41.65,32.69c7.92,13.7-2.56,40.36,7.55,52.41c10.15,12.08,38.23,6.35,50.31,16.5
		c12.04,10.12,11.26,38.78,24.95,46.71c13.57,7.85,38-7.1,52.92-1.67c14.66,5.34,23.74,32.54,39.47,35.3
		c15.29,2.68,33.09-19.75,49.14-19.75c16.05,0,33.85,22.42,49.14,19.75c15.72-2.75,24.8-29.96,39.47-35.3
		c14.92-5.43,39.35,9.52,52.92,1.67c13.7-7.92,12.91-36.59,24.95-46.71c12.08-10.15,40.17-4.42,50.31-16.5
		c10.12-12.04-0.37-38.71,7.55-52.41c7.85-13.57,36.22-17.77,41.65-32.69c5.34-14.66-13.65-36.09-10.9-51.82
		c2.68-15.29,27.89-28.95,27.89-45c0-16.05-25.22-29.71-27.89-45c-2.75-15.72,16.23-37.15,10.9-51.82
		c-5.43-14.92-33.8-19.12-41.65-32.69c-7.92-13.7,2.56-40.36-7.55-52.41c-10.15-12.08-38.23-6.35-50.31-16.5
		c-12.04-10.12-11.26-38.78-24.95-46.71c-13.57-7.85-38,7.1-52.92,1.67c-14.66-5.34-23.74-32.54-39.47-35.3
		C705.96,270.47,688.16,292.89,672.11,292.89z"/>
</g>
<g>
	<circle class="st5" cx="672" cy="552" r="207"/>
</g>
<g>
	<path class="st6" d="M484.29,550.82c-0.76-0.06-1.47-0.22-2.13-0.46c-0.66-0.25-1.22-0.61-1.69-1.08
		c-0.47-0.47-0.82-1.09-1.05-1.84c-0.23-0.76-0.31-1.66-0.23-2.69c0.15-1.81,0.66-3.13,1.54-3.95c0.88-0.82,2-1.24,3.36-1.26
		c0.18-0.03,0.35-0.04,0.52-0.02c0.17,0.01,0.36,0.03,0.57,0.05l19.85,1.6c-0.13,1.64-0.41,3.38-0.84,5.21
		c-0.49,1.79-1.39,3.18-2.71,4.18c-1.31,1-2.75,1.44-4.31,1.32L484.29,550.82z M506.96,540.71l0.96-11.92
		c0.15-1.81,0.64-3.23,1.49-4.25c0.88-0.93,2.02-1.34,3.44-1.22c1.42,0.11,2.48,0.7,3.2,1.76c0.64,1.1,0.89,2.57,0.74,4.43
		l-1.44,17.88c-0.17,2.16-0.82,3.64-1.95,4.44c-1.12,0.8-2.48,1.14-4.07,1.01l-7.83-0.63c1.71-0.99,3-2.52,3.86-4.58
		C506.22,545.56,506.76,543.26,506.96,540.71z"/>
	<path class="st6" d="M498.67,521.98c-2.46-0.73-4.53-1.74-6.21-3.01c-1.68-1.27-3-2.68-3.94-4.23c-0.95-1.55-1.53-3.16-1.76-4.83
		c-0.22-1.67-0.11-3.28,0.35-4.81c0.56-1.87,1.55-3.51,2.96-4.92c1.42-1.41,3.3-2.42,5.65-3.02c-0.77,1.85-1.16,3.53-1.18,5.04
		c-0.02,1.51,0.27,2.84,0.87,3.99c0.6,1.15,1.46,2.13,2.59,2.95c1.13,0.81,2.44,1.44,3.94,1.89c1.36,0.41,2.69,0.6,3.98,0.58
		c1.29-0.02,2.47-0.28,3.54-0.77c1.07-0.49,2.02-1.25,2.85-2.27c0.83-1.02,1.48-2.32,1.95-3.89c0.47-1.58,0.64-3.02,0.51-4.33
		c-0.13-1.31-0.51-2.46-1.14-3.46c-0.62-1-1.46-1.86-2.51-2.58c-1.05-0.72-2.27-1.29-3.67-1.71c-0.96-0.29-1.87-0.44-2.71-0.47
		c-0.84-0.03-1.64-0.04-2.4-0.04c-1.31,0.02-2.69,0.24-4.16,0.66c-1.46,0.42-2.94,1.11-4.42,2.07c-1.48,0.96-2.94,2.24-4.38,3.85
		c-1.44,1.6-2.78,3.58-4.02,5.92c-0.04-2.64,0.36-5.37,1.2-8.19c0.94-3.15,2.24-5.84,3.9-8.06c1.66-2.22,3.55-3.95,5.68-5.19
		c2.13-1.24,4.44-1.99,6.94-2.23c2.5-0.25,5.04,0.02,7.63,0.79c2.66,0.79,4.95,1.99,6.88,3.58c1.93,1.59,3.43,3.49,4.51,5.69
		c1.08,2.2,1.7,4.68,1.85,7.44c0.15,2.76-0.24,5.7-1.17,8.81c-0.96,3.2-2.26,5.9-3.92,8.12c-1.66,2.22-3.55,3.95-5.68,5.19
		c-2.13,1.24-4.43,1.99-6.91,2.24C503.8,523.02,501.26,522.76,498.67,521.98z"/>
	<path class="st6" d="M506.73,452.07c0.26-0.75,0.64-1.59,1.13-2.51c0.49-0.92,1.03-1.86,1.63-2.82c0.78-1.25,1.64-2.47,2.59-3.67
		c0.95-1.2,1.95-2.25,3-3.15c1.05-0.9,2.13-1.58,3.24-2.04c1.11-0.46,2.2-0.56,3.27-0.3c0.71,0.18,1.3,0.52,1.78,0.99
		c0.48,0.48,0.81,1.05,0.97,1.71c0.16,0.66,0.13,1.41-0.1,2.23c-0.23,0.83-0.7,1.68-1.41,2.57c-0.31,0.37-0.71,0.77-1.18,1.22
		c-0.48,0.44-0.98,0.92-1.5,1.44c-0.52,0.52-1.06,1.09-1.62,1.71c-0.55,0.63-1.06,1.31-1.51,2.04c-0.41,0.66-0.76,1.36-1.06,2.1
		c-0.29,0.74-0.48,1.54-0.57,2.4c-0.16,1.18,0.01,2.45,0.5,3.83c0.49,1.38,1.29,2.65,2.39,3.82c1.11,1.17,2.5,2.15,4.17,2.93
		c1.67,0.78,3.6,1.19,5.78,1.22c2.18,0.03,4.62-0.43,7.33-1.38c2.71-0.95,5.61-2.55,8.72-4.8c-0.64,1.69-1.52,3.44-2.64,5.24
		c-1.33,2.14-2.87,4.07-4.62,5.81c-1.75,1.74-3.63,3.07-5.62,3.97c-1.94,0.89-4.07,1.34-6.38,1.36c-2.32,0.02-4.59-0.36-6.82-1.14
		c-2.23-0.77-4.31-1.91-6.24-3.41c-1.92-1.5-3.47-3.31-4.64-5.44c-1.17-2.13-1.86-4.53-2.07-7.21
		C505.03,458.1,505.52,455.2,506.73,452.07z M533.26,463.26c0.58-0.81,1.17-1.81,1.75-3.01c0.58-1.2,1.04-2.43,1.38-3.7
		c0.16-0.72,0.36-1.4,0.59-2.04c0.24-0.64,0.51-1.22,0.83-1.74c0.39-0.62,0.85-1.13,1.4-1.51c0.54-0.38,1.23-0.59,2.07-0.63
		c1.93-0.08,3.23,0.58,3.92,1.97c0.44,0.73,0.6,1.56,0.46,2.46c-0.14,0.91-0.47,1.79-0.99,2.63c-1.12,1.8-2.56,3.12-4.31,3.94
		c-1.75,0.82-3.49,1.34-5.21,1.54c-0.08,0-0.23,0-0.43,0c-0.2,0-0.41,0.01-0.63,0.03L533.26,463.26z"/>
	<path class="st6" d="M544.45,448.21c-0.47-1.29-0.67-2.6-0.59-3.94c0.08-1.34,0.39-2.67,0.91-3.99c0.53-1.32,1.24-2.61,2.13-3.87
		c0.89-1.26,1.91-2.45,3.05-3.57l5.38-5.28l-9.1-3.9l1.27,3.06c0.31,0.81,0.62,1.6,0.94,2.35c0.32,0.76,0.53,1.28,0.63,1.57
		c-1.91,1.83-3.51,3.84-4.78,6.03c-1.28,2.2-1.85,4.38-1.73,6.54c-0.17-0.42-0.4-1.01-0.7-1.79c-0.3-0.77-0.65-1.65-1.03-2.63
		c-0.39-0.98-0.8-2.03-1.23-3.16c-0.44-1.13-0.86-2.24-1.27-3.34l-3.26-8.53c-1.38-3.64-0.72-6.8,2.01-9.47
		c2.72-2.67,5.89-3.27,9.51-1.82l24.24,9.88c1.19,0.53,2.06,1.08,2.62,1.65s0.87,1.33,0.95,2.27c0.02,0.71-0.1,1.34-0.37,1.89
		c-0.27,0.56-0.68,1.18-1.23,1.86c-1.23,1.4-2.47,2.19-3.7,2.35c-1.23,0.17-2.63-0.08-4.18-0.74l-1.48-0.58l-10.12,9.92
		c0.06,0.19,0.18,0.48,0.36,0.88c0.18,0.4,0.36,0.88,0.52,1.42c0.17,0.54,0.29,1.11,0.36,1.72c0.08,0.6,0.05,1.19-0.07,1.74
		c-0.31,1.23-0.95,2.31-1.91,3.25c-0.65,0.64-1.36,1.12-2.12,1.46c-0.76,0.34-1.47,0.45-2.11,0.36c-0.94-0.15-1.7-0.49-2.29-1.03
		C545.47,450.24,544.93,449.38,544.45,448.21z"/>
	<path class="st6" d="M560.56,400.89c-0.41-0.65-0.71-1.31-0.9-1.98c-0.2-0.68-0.24-1.34-0.14-2c0.1-0.65,0.38-1.3,0.85-1.95
		c0.47-0.64,1.14-1.24,2.02-1.79c1.54-0.97,2.9-1.34,4.09-1.13c1.19,0.22,2.19,0.86,3.02,1.94c0.13,0.12,0.24,0.26,0.33,0.41
		c0.09,0.15,0.19,0.31,0.3,0.48l10.6,16.86c-1.39,0.88-2.95,1.69-4.68,2.45c-1.73,0.68-3.38,0.79-4.97,0.33
		c-1.59-0.45-2.8-1.34-3.63-2.66L560.56,400.89z M582.23,413l10.12-6.37c1.54-0.97,2.97-1.42,4.3-1.35
		c1.27,0.14,2.28,0.82,3.04,2.02s0.93,2.41,0.51,3.61c-0.49,1.17-1.53,2.25-3.1,3.24l-15.19,9.55c-1.83,1.15-3.41,1.52-4.72,1.1
		c-1.31-0.42-2.4-1.31-3.25-2.66l-4.18-6.65c1.82,0.78,3.81,0.9,5.98,0.35C577.9,415.31,580.06,414.36,582.23,413z"/>
	<path class="st6" d="M612.16,371.74c-0.07-0.48,0-0.98,0.2-1.48c0.2-0.51,0.46-0.99,0.81-1.44c0.34-0.45,0.76-0.84,1.27-1.17
		c0.5-0.33,1.07-0.56,1.71-0.71c0.59-0.13,1.18-0.14,1.76-0.03c0.58,0.12,1.15,0.3,1.69,0.55c0.55,0.25,1.06,0.54,1.53,0.88
		c0.48,0.34,0.9,0.64,1.27,0.91l3.34,2.65c0.92,0.72,1.8,1.42,2.65,2.12c0.85,0.7,1.49,1.21,1.92,1.54c-0.3,0.82-0.59,1.72-0.85,2.7
		c-0.27,0.98-0.48,1.99-0.65,3c-0.17,1.02-0.3,2.03-0.41,3.05c-0.1,1.02-0.14,1.97-0.12,2.85c-0.17-0.17-0.49-0.46-0.96-0.85
		s-1.04-0.86-1.72-1.4c-0.68-0.54-1.41-1.14-2.21-1.79c-0.79-0.65-1.6-1.3-2.41-1.93c-0.93-0.78-1.91-1.59-2.92-2.43
		c-1.01-0.84-2.07-1.72-3.17-2.64c-1.51-1.36-2.4-2.64-2.67-3.82C612.16,372.04,612.14,371.85,612.16,371.74z M632.17,377.06
		l5.38-11.25c0.22-0.41,0.47-0.86,0.75-1.37c0.28-0.51,0.62-1,1-1.48c0.38-0.48,0.81-0.89,1.28-1.25c0.47-0.36,1.01-0.6,1.6-0.74
		c0.42-0.1,0.91-0.12,1.45-0.06c0.55,0.05,1.09,0.17,1.65,0.35c0.55,0.18,1.03,0.4,1.45,0.66c0.41,0.26,0.68,0.56,0.8,0.88
		c0.3,0.75,0.47,1.21,0.51,1.38c0.27,1.18,0.02,2.72-0.75,4.6l-7.5,16.26l1.73,7.61c0.17,0.74,0.23,1.47,0.19,2.17
		c-0.04,0.7-0.23,1.35-0.56,1.94c-0.33,0.59-0.81,1.11-1.45,1.56c-0.63,0.45-1.45,0.78-2.47,1.01c-1.01,0.23-1.91,0.28-2.7,0.16
		c-0.78-0.12-1.45-0.38-2.01-0.77c-0.56-0.39-1-0.89-1.34-1.51c-0.34-0.62-0.59-1.3-0.76-2.04l-0.24-1.06
		c-0.62-2.74-0.79-5.59-0.51-8.55C629.95,382.59,630.78,379.76,632.17,377.06z"/>
	<path class="st6" d="M687.4,373.43c0.35,0.01,0.69,0.02,1.04,0.05c0.35,0.02,0.69,0.06,1.04,0.1l11.94,1.43
		c1.76,0.21,3.06,0.68,3.89,1.41c0.83,0.73,1.32,1.52,1.48,2.38c0.16,0.86,0.05,1.68-0.33,2.47c-0.38,0.79-0.9,1.38-1.55,1.75
		c-1.04,0.64-2.55,0.85-4.52,0.61l-11.94-1.43l-0.61,5.06l13.49,1.62c1.81,0.22,3.19,0.74,4.16,1.57c0.97,0.83,1.36,2.02,1.18,3.57
		c-0.19,1.55-0.85,2.6-1.98,3.17c-1.14,0.56-2.61,0.73-4.42,0.52l-18.84-2.26c-2.06-0.25-3.5-0.92-4.31-2.01
		c-0.81-1.09-1.11-2.48-0.91-4.17l0.98-8.16c0.14-1.14,0.5-2.18,1.1-3.14c0.59-0.96,1.35-1.78,2.26-2.48
		c0.91-0.69,1.96-1.22,3.14-1.59C684.85,373.54,686.09,373.38,687.4,373.43z M679.2,364.28c0.21-1.75,0.87-3.07,1.98-3.95
		c1.14-0.81,2.66-1.09,4.56-0.87l18.59,2.23c0.77,0.09,1.54,0.26,2.3,0.51c0.76,0.25,1.39,0.63,1.89,1.14
		c0.95,0.85,1.33,1.99,1.16,3.44c-0.18,1.48-0.83,2.52-1.95,3.12c-1.04,0.64-2.52,0.85-4.46,0.62l-13.23-1.59l-0.27,2.22
		c-2.89-0.31-5.34,0.06-7.37,1.1c-2.02,1.05-3.58,2.45-4.66,4.21L679.2,364.28z"/>
	<path class="st6" d="M717.24,368.29c0.43-1.21,1.27-2.1,2.52-2.67c1.26-0.57,2.66-0.58,4.22-0.03c0.78,0.27,1.4,0.65,1.88,1.13
		c0.47,0.48,0.84,1,1.1,1.57c0.26,0.57,0.44,1.17,0.54,1.79c0.1,0.62,0.17,1.22,0.2,1.78l0.18,7.12c0.04,0.93,0.07,1.87,0.08,2.81
		c0.01,0.94,0.03,1.81,0.05,2.61c0.02,0.8,0.03,1.51,0.04,2.14c0.01,0.63,0.03,1.09,0.06,1.4c-0.33,0.55-0.72,1.11-1.18,1.68
		c-0.46,0.58-0.99,1.05-1.6,1.42c-0.61,0.37-1.3,0.62-2.05,0.74c-0.76,0.12-1.58,0.02-2.48-0.29c-0.82-0.29-1.53-0.78-2.14-1.47
		c-0.61-0.69-0.94-1.54-1-2.56l-0.83-15.28c-0.07-0.72-0.08-1.33-0.04-1.83c0.04-0.5,0.08-0.89,0.13-1.17L717.24,368.29z
		 M728.15,392.14c1.32-1.52,2.46-2.85,3.44-4c0.98-1.14,2.03-2.39,3.17-3.73c1.14-1.34,2.2-2.59,3.17-3.73
		c0.98-1.14,2.12-2.48,3.44-4c2.14-2.56,4.39-3.42,6.76-2.58c1.59,0.56,2.7,1.46,3.33,2.69c0.62,1.23,0.72,2.45,0.3,3.66
		c-0.32,0.92-0.75,1.67-1.27,2.25c-0.1,0.15-0.22,0.31-0.37,0.48c-0.15,0.17-0.31,0.35-0.47,0.55L733.4,401.7
		c-2.7,2.98-5.85,3.84-9.45,2.57c-3.6-1.27-5.52-3.91-5.76-7.92l-0.31-5.4c1.02,1.13,2.23,1.94,3.62,2.43
		c1.23,0.43,2.43,0.55,3.63,0.37C726.32,393.57,727.33,393.03,728.15,392.14z"/>
	<path class="st6" d="M761.31,396.58c0.31,0.15,0.62,0.32,0.92,0.48c0.3,0.17,0.6,0.34,0.9,0.53l10.21,6.36
		c1.51,0.94,2.48,1.91,2.92,2.92c0.44,1.01,0.55,1.94,0.34,2.78c-0.22,0.84-0.67,1.54-1.35,2.1c-0.68,0.56-1.4,0.87-2.15,0.93
		c-1.21,0.14-2.67-0.31-4.36-1.37l-10.21-6.36l-2.69,4.33l11.53,7.18c1.54,0.96,2.58,2.03,3.11,3.19c0.52,1.16,0.38,2.41-0.45,3.73
		c-0.82,1.32-1.87,2-3.14,2.03c-1.27,0.03-2.67-0.44-4.22-1.4l-16.11-10.03c-1.77-1.1-2.78-2.31-3.05-3.65
		c-0.27-1.33,0.05-2.72,0.94-4.16l4.34-6.97c0.6-0.97,1.38-1.77,2.32-2.38c0.94-0.62,1.98-1.04,3.1-1.29
		c1.12-0.24,2.29-0.28,3.51-0.11C758.96,395.6,760.15,395.99,761.31,396.58z M757.76,384.82c0.93-1.5,2.09-2.41,3.47-2.74
		c1.38-0.24,2.88,0.14,4.49,1.14l15.89,9.9c0.66,0.41,1.28,0.89,1.86,1.44c0.58,0.54,0.99,1.16,1.23,1.84
		c0.5,1.17,0.36,2.37-0.41,3.6c-0.79,1.27-1.82,1.93-3.08,2c-1.21,0.14-2.65-0.3-4.3-1.33l-11.31-7.04l-1.18,1.9
		c-2.48-1.51-4.86-2.21-7.14-2.12c-2.28,0.09-4.28,0.7-6,1.83L757.76,384.82z"/>
	<path class="st6" d="M773.46,424.2l15.97-15.95c0.64,1.08,1.07,2.44,1.29,4.09c0.22,1.65,0.18,3.4-0.13,5.28
		c-0.31,1.87-0.9,3.77-1.78,5.68c-0.88,1.92-2.1,3.66-3.67,5.23l-3.68,3.67c-0.37,0.37-0.78,0.72-1.23,1.05
		c-0.45,0.33-0.94,0.58-1.47,0.73c-0.53,0.16-1.09,0.21-1.68,0.16c-0.59-0.05-1.21-0.28-1.85-0.68c-0.55-0.31-1.12-0.75-1.7-1.33
		c-0.77-0.77-1.3-1.51-1.59-2.22c-0.3-0.71-0.42-1.4-0.37-2.06c0.05-0.66,0.24-1.3,0.58-1.92
		C772.49,425.32,772.93,424.74,773.46,424.2z M798.74,406.31c0.53,0.39,1.09,0.87,1.67,1.45c0.86,0.86,1.49,1.77,1.9,2.75
		c0.41,0.97,0.65,1.98,0.74,3.02c0.09,1.04,0.06,2.11-0.08,3.2c-0.14,1.09-0.33,2.15-0.57,3.18l-3.65,15.77l10.85-10.84
		c1.25-1.25,2.53-1.9,3.85-1.96c1.31-0.06,2.66,0.6,4.04,1.98c1.38,1.38,2.05,2.74,2.03,4.09c-0.03,1.35-0.67,2.64-1.92,3.89
		l-16,15.98c-0.66,0.66-1.4,1.26-2.21,1.8c-0.81,0.54-1.69,0.89-2.62,1.06c-0.94,0.17-1.91,0.1-2.92-0.2
		c-1.01-0.3-2.03-0.96-3.04-1.97c-0.92-0.92-1.59-1.9-2.02-2.94c-0.43-1.04-0.68-2.11-0.76-3.19c-0.08-1.08-0.05-2.16,0.09-3.22
		c0.14-1.06,0.32-2.07,0.54-3.02l1.53-6.49c0.18-0.85,0.37-1.72,0.57-2.59c0.2-0.88,0.4-1.7,0.59-2.47c0.19-0.77,0.35-1.47,0.5-2.11
		c0.15-0.64,0.25-1.14,0.32-1.52c0.4-1.81,0.61-3.62,0.65-5.42c0.03-1.81-0.25-3.58-0.85-5.3c-0.37-1.1-0.4-2.09-0.1-2.97
		c0.3-0.88,0.79-1.57,1.49-2.08c0.69-0.51,1.52-0.77,2.49-0.78C796.8,405.38,797.77,405.69,798.74,406.31z"/>
	<path class="st6" d="M830.07,462.08l-16.77,10.25c-0.65,0.4-1.32,0.69-1.99,0.88c-0.68,0.19-1.35,0.23-2,0.12
		c-0.66-0.11-1.29-0.39-1.92-0.85c-0.62-0.46-1.21-1.13-1.75-2.02c-0.54-0.89-0.88-1.72-1.01-2.5c-0.13-0.78-0.1-1.5,0.09-2.15
		c0.19-0.65,0.52-1.23,1-1.75c0.48-0.52,1.04-0.98,1.69-1.38l9.14-5.59c2.4-1.46,4.76-1.74,7.11-0.84
		C825.99,457.16,828.13,459.1,830.07,462.08z M823.26,438.29c1.33-0.81,2.57-0.95,3.71-0.4c1.15,0.54,2.19,1.59,3.14,3.15
		l12.85,21.02c1.02,1.66,1.45,3.1,1.29,4.31c-0.08,1.27-0.74,2.28-1.98,3.04c-1.27,0.78-2.49,0.91-3.65,0.4
		c-1.15-0.42-2.23-1.46-3.25-3.12l-2.95-4.82c-1.09-1.72-2.16-3.1-3.2-4.14c-1.04-1.04-2.07-1.82-3.08-2.35
		c-1.01-0.52-2-0.82-2.98-0.88c-0.98-0.06-1.91,0.03-2.82,0.28l5.63-3.44l-3.46-5.66c-1.02-1.66-1.45-3.1-1.29-4.31
		C821.32,440.08,821.99,439.06,823.26,438.29z"/>
	<path class="st6" d="M831.71,478.24c2.44-0.79,4.71-1.14,6.82-1.04c2.11,0.09,3.99,0.51,5.65,1.25c1.66,0.74,3.06,1.73,4.19,2.98
		c1.13,1.25,1.94,2.64,2.44,4.16c0.6,1.86,0.72,3.76,0.35,5.73c-0.37,1.96-1.35,3.86-2.94,5.7c-0.42-1.96-1.04-3.57-1.89-4.82
		c-0.84-1.25-1.84-2.19-2.98-2.79c-1.15-0.61-2.41-0.93-3.81-0.96c-1.4-0.03-2.83,0.2-4.32,0.68c-1.35,0.44-2.55,1.03-3.6,1.78
		c-1.05,0.75-1.88,1.63-2.48,2.65c-0.6,1.01-0.96,2.18-1.06,3.48c-0.11,1.31,0.1,2.75,0.6,4.31c0.51,1.57,1.18,2.85,2.04,3.85
		c0.85,1,1.82,1.73,2.9,2.2c1.08,0.47,2.26,0.71,3.53,0.7c1.27,0,2.6-0.23,3.99-0.68c0.96-0.31,1.79-0.69,2.5-1.15
		c0.71-0.46,1.38-0.9,2-1.33c1.07-0.76,2.08-1.72,3.05-2.9c0.97-1.18,1.79-2.58,2.46-4.21c0.68-1.63,1.15-3.51,1.42-5.65
		c0.27-2.14,0.26-4.52-0.05-7.16c1.53,2.15,2.75,4.62,3.66,7.43c1.01,3.13,1.46,6.08,1.36,8.85c-0.11,2.77-0.68,5.26-1.73,7.49
		c-1.05,2.23-2.53,4.15-4.45,5.77c-1.92,1.62-4.16,2.85-6.73,3.68c-2.64,0.85-5.21,1.17-7.7,0.95c-2.49-0.22-4.81-0.93-6.94-2.13
		c-2.14-1.2-4.05-2.89-5.74-5.08c-1.69-2.19-3.04-4.83-4.04-7.92c-1.03-3.18-1.49-6.15-1.38-8.91c0.11-2.77,0.68-5.27,1.73-7.49
		c1.05-2.23,2.52-4.15,4.42-5.77C826.9,480.29,829.14,479.07,831.71,478.24z"/>
	<path class="st6" d="M835.09,526.81c0.82,0.43,1.4,0.94,1.73,1.53c0.33,0.59,0.51,1.25,0.56,1.99c0.04,0.78-0.01,1.64-0.16,2.58
		c-0.15,0.94-0.31,1.98-0.47,3.12c-0.16,1.14-0.28,2.36-0.36,3.67c-0.08,1.31-0.03,2.71,0.16,4.22c0.13,1.12,0.39,2.02,0.75,2.69
		c0.37,0.67,1,0.99,1.9,0.93c0.55-0.03,0.99-0.25,1.32-0.66c0.32-0.41,0.59-0.96,0.79-1.64s0.38-1.48,0.52-2.37
		c0.14-0.9,0.28-1.87,0.43-2.92c0.12-0.83,0.4-1.58,0.81-2.23c0.41-0.65,0.92-1.18,1.52-1.58c0.6-0.4,1.26-0.66,1.96-0.76
		c0.71-0.11,1.41-0.03,2.12,0.24c1.42,0.48,2.6,1.2,3.56,2.14c-0.01,0.48-0.06,1.32-0.17,2.52c-0.1,1.2-0.3,2.57-0.6,4.1
		s-0.72,3.13-1.29,4.79c-0.56,1.66-1.3,3.2-2.21,4.62c-0.91,1.42-2.03,2.61-3.36,3.58c-1.33,0.96-2.92,1.5-4.75,1.61
		c-2.18,0.12-4.03-0.27-5.54-1.18c-1.51-0.91-2.76-2.15-3.76-3.72c-0.99-1.57-1.74-3.36-2.24-5.37c-0.5-2.01-0.81-4.08-0.93-6.2
		c-0.13-2.34-0.08-4.58,0.16-6.71c0.24-2.14,0.61-3.99,1.12-5.53c0.53-1.64,1.36-2.79,2.48-3.46
		C832.28,526.1,833.59,526.11,835.09,526.81z M863.91,533.55c0.71,2.09,1.14,4.38,1.28,6.89c0.11,1.9,0.11,3.89,0,5.96
		c-0.11,2.07-0.39,3.9-0.86,5.49c-0.46,1.59-1.17,2.78-2.11,3.57c-0.94,0.79-2.18,0.84-3.72,0.15c-1.64-0.73-2.52-2.2-2.65-4.41
		c-0.04-0.65-0.01-1.29,0.1-1.93c0.1-0.63,0.2-1.32,0.3-2.07c0.1-0.74,0.17-1.57,0.22-2.49c0.05-0.91,0.01-2-0.13-3.25
		c-0.18-1.9-0.73-3.49-1.65-4.76c-0.92-1.27-2.03-2.2-3.31-2.77c-1.28-0.58-2.65-0.79-4.1-0.64c-1.45,0.15-2.79,0.69-4.02,1.63
		c0.3-0.89,0.69-1.85,1.19-2.9c0.5-1.05,0.95-1.87,1.37-2.46c1.12-1.58,2.54-2.72,4.26-3.4c1.71-0.68,3.46-0.87,5.23-0.56
		c1.77,0.31,3.44,1.12,5.01,2.41C861.88,529.33,863.08,531.17,863.91,533.55z"/>
</g>
<g>
	<path class="st6" d="M524.82,663.63v-33.93c0-3.61,1.03-6.58,3.09-8.91c2.06-2.33,5.22-3.5,9.47-3.5c2.03,0,3.83,0.3,5.4,0.9
		c1.57,0.6,2.94,1.44,4.12,2.51c1.18,1.07,2.21,2.34,3.09,3.81c0.88,1.47,1.65,3.04,2.31,4.71l3.53,8.64
		c0.46,1.1,0.93,2.21,1.42,3.34c0.49,1.13,0.93,2.19,1.33,3.18c0.39,1,0.74,1.86,1.03,2.59c0.29,0.73,0.51,1.28,0.64,1.65
		c1.5,3.82,2.47,7.29,2.9,10.41c0.42,3.12,0.18,5.93-0.74,8.44c-0.39,1-1.03,1.74-1.91,2.24c-0.88,0.5-1.85,0.75-2.9,0.75
		c-0.98,0-1.82-0.18-2.5-0.55c-0.69-0.37-1.26-0.84-1.72-1.41c-0.46-0.58-0.83-1.19-1.13-1.85c-0.29-0.65-0.57-1.3-0.83-1.92
		l-9.52-23.09v21.99c0,2.67-0.69,4.74-2.06,6.2c-1.37,1.47-3.53,2.2-6.48,2.2c-2.95,0-5.1-0.73-6.48-2.2
		C525.51,668.37,524.82,666.3,524.82,663.63z M562.52,643.84l3.44-8.48l2.55-6.13c0.59-1.46,1.28-2.92,2.06-4.36
		c0.79-1.44,1.77-2.72,2.94-3.85c1.18-1.12,2.57-2.03,4.17-2.71c1.6-0.68,3.52-1.02,5.74-1.02c2.29,0,4.24,0.34,5.84,1.02
		c1.6,0.68,2.9,1.6,3.88,2.75c0.98,1.15,1.7,2.47,2.16,3.97c0.46,1.49,0.69,3.05,0.69,4.67v33.93c0,1.15-0.15,2.24-0.44,3.26
		c-0.29,1.02-0.79,1.91-1.47,2.67c-0.69,0.76-1.57,1.36-2.65,1.81c-1.08,0.45-2.41,0.67-3.98,0.67c-1.64,0-2.99-0.22-4.07-0.67
		c-1.08-0.44-1.95-1.05-2.6-1.81c-0.65-0.76-1.13-1.65-1.42-2.67c-0.29-1.02-0.44-2.11-0.44-3.26v-21.99l-7.95,19.24
		c-0.85,1.99-1.88,3.74-3.09,5.26c-1.21,1.52-2.54,2.67-3.98,3.46c0.85-2.09,1.41-4.27,1.67-6.52c0.26-2.25,0.29-4.48,0.1-6.67
		c-0.2-2.2-0.57-4.37-1.13-6.52C563.97,647.74,563.3,645.73,562.52,643.84z"/>
	<path class="st6" d="M600.51,661.67c0.85-1.88,2.03-3.51,3.53-4.87c1.5-1.36,3.24-2.47,5.2-3.34c1.96-0.86,4.09-1.5,6.38-1.92
		c2.29-0.42,4.65-0.63,7.07-0.63h11.39l-5.69-13.82l-1.87,4.63c-0.52,1.21-1.02,2.38-1.47,3.53c-0.46,1.15-0.79,1.94-0.98,2.36
		c-3.99-0.05-7.84,0.43-11.54,1.45c-3.7,1.02-6.63,2.76-8.79,5.22c0.26-0.63,0.64-1.52,1.13-2.67c0.49-1.15,1.05-2.46,1.67-3.93
		c0.62-1.46,1.29-3.04,2.01-4.71c0.72-1.67,1.44-3.32,2.16-4.95l5.5-12.64c2.36-5.39,6.41-8.09,12.17-8.09
		c5.76,0,9.82,2.7,12.17,8.09l15.71,36.28c0.72,1.83,1.08,3.35,1.08,4.55c0,1.21-0.46,2.36-1.37,3.46
		c-0.72,0.79-1.52,1.33-2.41,1.65c-0.88,0.31-1.98,0.55-3.29,0.71c-2.81,0.21-4.97-0.25-6.48-1.37c-1.51-1.12-2.75-2.87-3.73-5.22
		l-0.98-2.2h-21.4c-0.13,0.26-0.31,0.71-0.54,1.33c-0.23,0.63-0.54,1.32-0.93,2.08c-0.39,0.76-0.87,1.51-1.42,2.24
		c-0.56,0.73-1.2,1.33-1.91,1.81c-1.64,1-3.47,1.49-5.5,1.49c-1.37,0-2.65-0.22-3.83-0.67c-1.18-0.44-2.06-1.06-2.65-1.84
		c-0.85-1.15-1.31-2.33-1.37-3.53C599.46,664.94,599.78,663.45,600.51,661.67z"/>
	<path class="st6" d="M660.78,663.63v-34.08c1.83,0.47,3.75,1.47,5.74,2.98c2,1.52,3.83,3.44,5.5,5.77
		c1.67,2.33,3.06,4.99,4.17,7.97c1.11,2.98,1.67,6.15,1.67,9.5v7.85c0,0.79-0.07,1.6-0.2,2.43c-0.13,0.84-0.39,1.62-0.79,2.36
		c-0.39,0.73-0.93,1.39-1.62,1.96c-0.69,0.58-1.59,1-2.7,1.26c-0.92,0.26-2,0.39-3.24,0.39c-1.64,0-2.99-0.22-4.07-0.67
		c-1.08-0.44-1.95-1.05-2.6-1.81c-0.65-0.76-1.13-1.65-1.42-2.67C660.93,665.87,660.78,664.79,660.78,663.63z M668.63,617.53
		c0.98-0.16,2.09-0.24,3.34-0.24c1.83,0,3.49,0.3,4.96,0.9c1.47,0.6,2.81,1.41,4.02,2.43c1.21,1.02,2.32,2.19,3.34,3.5
		c1.01,1.31,1.95,2.64,2.8,4l12.96,20.73V625.7c0-2.67,0.67-4.74,2.01-6.2c1.34-1.46,3.48-2.2,6.43-2.2c2.94,0,5.12,0.73,6.53,2.2
		c1.41,1.47,2.11,3.53,2.11,6.2v34.16c0,1.41-0.15,2.84-0.44,4.28c-0.29,1.44-0.85,2.75-1.67,3.93c-0.82,1.18-1.93,2.15-3.34,2.91
		c-1.41,0.76-3.19,1.14-5.35,1.14c-1.96,0-3.73-0.33-5.3-0.98c-1.57-0.65-2.98-1.52-4.22-2.59c-1.24-1.07-2.36-2.25-3.34-3.53
		c-0.98-1.28-1.87-2.55-2.65-3.81l-5.3-8.56c-0.72-1.1-1.44-2.22-2.16-3.38c-0.72-1.15-1.39-2.24-2.01-3.26
		c-0.62-1.02-1.2-1.95-1.72-2.79c-0.52-0.84-0.95-1.49-1.28-1.96c-1.51-2.36-3.21-4.52-5.1-6.48c-1.9-1.96-4.09-3.55-6.58-4.75
		c-1.57-0.79-2.67-1.81-3.29-3.06c-0.62-1.26-0.83-2.53-0.64-3.81c0.2-1.28,0.8-2.45,1.82-3.5
		C665.57,618.61,666.93,617.9,668.63,617.53z"/>
	<path class="st6" d="M720.56,623.97c0-2.36,0.8-4.06,2.41-5.1c1.6-1.05,3.78-1.57,6.53-1.57h37.21c2.94,0,5.14,0.58,6.58,1.73
		c1.57,1.1,2.36,2.75,2.36,4.95c0,2.25-0.79,3.93-2.36,5.03c-1.44,1.15-3.63,1.73-6.58,1.73h-8.54c-3.08,0.05-5.69,0.34-7.85,0.86
		c-2.16,0.52-3.98,1.23-5.45,2.12c-1.47,0.89-2.64,1.94-3.48,3.14c-0.85,1.21-1.47,2.49-1.87,3.85v-9.97H729.5
		c-2.95,0-5.14-0.58-6.58-1.73C721.35,627.9,720.56,626.23,720.56,623.97z M756.59,633.95v29.69c0,1.15-0.15,2.24-0.44,3.26
		c-0.29,1.02-0.77,1.91-1.42,2.67c-0.66,0.76-1.52,1.36-2.6,1.81c-1.08,0.45-2.41,0.67-3.98,0.67c-1.57,0-2.91-0.22-4.02-0.67
		c-1.11-0.44-2.01-1.05-2.7-1.81c-0.69-0.76-1.18-1.65-1.47-2.67c-0.29-1.02-0.44-2.11-0.44-3.26v-16.18c0-4.24,1.5-7.51,4.52-9.82
		C747.04,635.34,751.23,634.1,756.59,633.95z"/>
	<path class="st6" d="M775.05,644.71c0-3.87,0.56-7.3,1.67-10.29c1.11-2.98,2.58-5.5,4.42-7.54c1.83-2.04,3.91-3.59,6.23-4.63
		c2.32-1.05,4.69-1.57,7.12-1.57c2.94,0,5.74,0.72,8.39,2.16c2.65,1.44,4.92,3.73,6.82,6.87c-3.01-0.31-5.61-0.16-7.8,0.47
		c-2.19,0.63-3.99,1.62-5.4,2.98c-1.41,1.36-2.45,3.04-3.14,5.03c-0.69,1.99-1.03,4.16-1.03,6.52c0,2.15,0.29,4.15,0.88,6.01
		c0.59,1.86,1.47,3.46,2.65,4.79c1.18,1.33,2.68,2.38,4.52,3.14c1.83,0.76,3.99,1.14,6.48,1.14c2.49,0,4.65-0.38,6.48-1.14
		c1.83-0.76,3.34-1.81,4.52-3.14c1.18-1.33,2.06-2.92,2.65-4.75c0.59-1.83,0.88-3.85,0.88-6.05c0-1.52-0.16-2.89-0.49-4.12
		c-0.33-1.23-0.65-2.4-0.98-3.5c-0.59-1.88-1.51-3.79-2.75-5.73c-1.24-1.94-2.88-3.77-4.91-5.5c-2.03-1.73-4.52-3.29-7.46-4.67
		c-2.95-1.39-6.38-2.47-10.31-3.26c3.79-1.2,7.92-1.81,12.37-1.81c4.97,0,9.42,0.72,13.35,2.16c3.93,1.44,7.25,3.43,9.96,5.97
		c2.72,2.54,4.79,5.56,6.23,9.07c1.44,3.51,2.16,7.3,2.16,11.39c0,4.19-0.74,8.02-2.21,11.51c-1.47,3.48-3.57,6.48-6.28,8.99
		c-2.72,2.51-6.04,4.48-9.96,5.89c-3.93,1.41-8.34,2.12-13.25,2.12c-5.04,0-9.52-0.72-13.45-2.16s-7.25-3.43-9.96-5.97
		c-2.72-2.54-4.79-5.55-6.23-9.03C775.77,652.57,775.05,648.79,775.05,644.71z"/>
</g>
<g>
	<path class="st6" d="M613.96,513.06c-0.06-0.51-0.13-1.03-0.19-1.54"/>
</g>
<polygon class="st6" points="723.66,589.11 672.74,562.69 622.11,589.67 631.5,533.07 590.2,493.26 646.92,484.7 672.02,433.12 
	697.7,484.42 754.51,492.35 713.65,532.62 "/>
</svg>
